<svg width="439" height="413" viewBox="0 0 439 413" fill="none" xmlns="http://www.w3.org/2000/svg">
<path d="M65.1894 268.556C55.263 253.386 56.7142 231.714 68.5176 217.995C72.1941 213.738 77.3315 210.033 82.9429 210.517C88.5544 211 93.3048 215.925 95.0559 221.42C96.8071 226.916 96.1879 232.856 95.1624 238.525C93.7305 246.459 91.2924 254.576 85.8164 260.478C80.3404 266.38 72.2715 272.426 65.1507 268.556" fill="#0086CF"/>
<path d="M68.1894 341.583C66.4076 337.171 66.0589 332.311 67.1927 327.69C68.3266 323.07 70.8856 318.923 74.5071 315.838C76.7904 313.97 79.7703 312.529 82.6147 313.283C85.4591 314.038 87.4522 317.018 87.8682 319.998C88.2842 322.978 87.4135 325.996 86.3783 328.821C84.9173 332.788 82.9437 336.755 79.6058 339.29C76.268 341.825 71.5176 344.214 68.2281 341.583" fill="#0086CF"/>
<path d="M46.7493 336.368C49.4776 322.881 42.3956 308.078 30.2148 301.751C26.432 299.816 21.788 298.616 17.9761 300.532C14.1641 302.448 12.1711 307.237 12.5097 311.59C12.8484 315.944 14.9091 319.978 17.2408 323.655C20.4722 328.831 24.4389 333.872 29.9633 336.474C35.4877 339.077 42.8793 341.079 46.7686 336.368" fill="#0086CF"/>
<path d="M48.4712 300C53.2216 284.675 45.172 266.138 31.7432 257.304C27.583 254.576 22.3102 252.68 17.6566 254.402C13.0029 256.124 10.1488 261.532 10.0037 266.631C9.85857 271.73 11.8129 276.635 14.0672 281.211C17.2212 287.616 21.246 293.943 27.3605 297.659C33.4751 301.374 43.3919 305.011 48.4712 299.99" fill="#0086CF"/>
<path d="M55.5243 374.903C55.4439 374.665 55.3919 374.418 55.3695 374.168C55.2825 373.607 55.176 372.9 55.0503 372.03C54.9825 371.556 54.9148 371.062 54.8374 370.482C54.76 369.901 54.6052 369.311 54.4794 368.663C54.2376 367.357 53.9763 365.857 53.5119 364.241C53.3088 363.419 53.1056 362.568 52.8927 361.687C52.6799 360.807 52.3703 359.897 52.0897 358.949C51.577 357.014 50.8223 355.079 50.1547 352.98C48.4575 348.492 46.4833 344.113 44.2434 339.87C41.9449 335.666 39.3891 331.608 36.5905 327.719C35.236 325.977 34.017 324.255 32.7205 322.775L30.892 320.598L29.1021 318.663C27.9895 317.405 26.8865 316.37 25.9287 315.441L24.6129 314.135L23.4423 313.109L21.8362 311.658C21.4686 311.319 21.2848 311.136 21.3041 311.116C21.5206 311.246 21.7246 311.395 21.9136 311.561L23.6068 312.916L24.8161 313.883L26.1803 315.141C27.1478 316.051 28.2894 317.076 29.4311 318.314L31.2596 320.249L33.1365 322.417C34.462 323.887 35.7101 325.6 37.0839 327.351C39.9278 331.254 42.5133 335.339 44.8239 339.58C47.0798 343.851 49.0513 348.266 50.7256 352.796C51.4222 354.915 52.1671 356.898 52.6605 358.814C52.9314 359.781 53.183 360.691 53.4345 361.581C53.6861 362.471 53.8312 363.332 54.015 364.154C54.4214 365.789 54.6439 367.299 54.8568 368.614C54.9632 369.272 55.0696 369.882 55.1567 370.453C55.2438 371.023 55.2728 371.536 55.3212 372.01C55.3986 372.891 55.4663 373.607 55.5146 374.168C55.5422 374.412 55.5455 374.658 55.5243 374.903Z" fill="#263238"/>
<path d="M55.1759 377.661C55.1631 377.558 55.1631 377.454 55.1759 377.351C55.1759 377.119 55.1759 376.829 55.2339 376.471C55.3113 375.639 55.4177 374.536 55.5532 373.065C55.6306 372.32 55.708 371.498 55.7951 370.608C55.8821 369.718 55.8918 368.721 55.9402 367.705C56.0176 365.596 56.2208 363.197 56.1434 360.546C56.1434 359.22 56.1434 357.837 56.1434 356.385C56.1434 354.934 55.9982 353.435 55.9208 351.877C55.8144 348.762 55.3984 345.462 55.0211 341.97C53.9963 334.448 52.4248 327.011 50.3191 319.718C48.1055 312.432 45.3635 305.319 42.1147 298.433C40.528 295.308 39.0768 292.299 37.4708 289.628C36.6774 288.284 35.9711 286.949 35.1971 285.759C34.4232 284.569 33.6879 283.33 32.9235 282.247C31.54 279.973 30.0211 278.077 28.8601 276.354C28.2409 275.503 27.6797 274.7 27.1379 273.974C26.5961 273.249 26.0543 272.639 25.5899 272.039L23.4711 269.36C23.2583 269.069 23.0745 268.837 22.9293 268.653C22.7842 268.469 22.7552 268.402 22.7649 268.392C22.7745 268.382 22.8519 268.46 22.9874 268.605L23.5679 269.272L25.7834 271.885L27.3798 273.82C27.941 274.526 28.5118 275.329 29.1503 276.171C30.3887 277.873 31.898 279.76 33.3105 281.976L35.6228 285.449C36.4162 286.668 37.1321 288.003 37.9352 289.319C39.5702 291.989 41.0408 294.988 42.6468 298.123C45.9457 304.998 48.7175 312.113 50.9382 319.408C53.0604 326.745 54.6225 334.232 55.6112 341.805C55.9692 345.308 56.3756 348.626 56.4626 351.751C56.5207 353.319 56.6465 354.828 56.6465 356.279C56.6465 357.73 56.6465 359.123 56.6465 360.459C56.6465 363.119 56.453 365.519 56.3465 367.628C56.2691 368.682 56.2304 369.659 56.1434 370.53C56.0563 371.401 55.9305 372.252 55.8434 372.988L55.4081 376.384C55.4081 376.741 55.3113 377.032 55.2823 377.264C55.2659 377.401 55.2301 377.534 55.1759 377.661Z" fill="#263238"/>
<path d="M80.9979 228.841C80.964 228.938 80.922 229.032 80.8721 229.122L80.4367 229.915L78.7436 232.904C78.3857 233.562 77.9406 234.278 77.5246 235.091L76.1991 237.761C75.7154 238.729 75.2316 239.696 74.6705 240.819C74.1093 241.941 73.703 243.102 73.1128 244.331C72.5226 245.559 71.9809 246.846 71.4294 248.2C70.8779 249.555 70.3555 250.997 69.7846 252.467C69.5041 253.212 69.2138 253.957 68.9236 254.721L68.1206 257.092C67.5884 258.688 67.0273 260.333 66.4661 262.016C64.357 268.789 62.364 276.384 60.6612 284.423C58.9584 292.463 57.8748 300.261 57.0718 307.334C56.2688 314.406 55.8141 320.811 55.6689 326.19C55.5335 328.88 55.5045 331.318 55.4948 333.456C55.4851 335.594 55.4464 337.432 55.4948 338.942C55.5432 340.451 55.4948 341.564 55.4948 342.415C55.4948 342.773 55.4948 343.073 55.4948 343.315C55.5093 343.417 55.5093 343.522 55.4948 343.624C55.4808 343.522 55.4808 343.417 55.4948 343.315C55.4948 343.073 55.4948 342.783 55.4367 342.415C55.4367 341.573 55.34 340.412 55.2723 338.951C55.2045 337.49 55.1465 335.594 55.1465 333.456C55.1465 331.318 55.1465 328.87 55.2239 326.171C55.311 320.782 55.8044 314.367 56.4913 307.266C57.1782 300.164 58.4263 292.405 60.071 284.336C61.7158 276.267 63.7668 268.682 65.876 261.871C66.4468 260.188 67.0176 258.543 67.5594 256.937C67.84 256.144 68.1109 255.35 68.3818 254.576L69.2622 252.322L70.9553 248.055C71.5165 246.691 72.126 245.414 72.6678 244.185C73.2096 242.957 73.7417 241.776 74.2738 240.683L75.8508 237.635L77.2343 234.985C77.6697 234.172 78.1244 233.466 78.5017 232.817L80.311 229.847C80.5045 229.538 80.6593 229.286 80.7947 229.083C80.9302 228.88 80.9882 228.831 80.9979 228.841Z" fill="#263238"/>
<path d="M77.6215 321.914C77.3229 322.561 76.9701 323.183 76.567 323.771C75.8413 324.922 74.8448 326.674 73.6645 328.783C72.4841 330.892 71.2071 333.543 69.9009 336.523C68.5948 339.503 67.3661 342.811 66.2535 346.362C65.1409 349.913 64.3185 353.386 63.7187 356.55C63.1188 359.714 62.7512 362.606 62.4706 365.035C62.19 367.463 62.0836 369.446 62.0255 370.84C62.0274 371.55 61.9691 372.258 61.8514 372.958C61.7679 372.252 61.742 371.54 61.774 370.83C61.774 369.456 61.774 367.473 62.0159 365.025C62.239 362.157 62.6104 359.302 63.1285 356.472C64.3868 349.525 66.4788 342.756 69.3591 336.31C70.6943 333.349 72.0294 330.747 73.2291 328.618C74.4288 326.49 75.5124 324.806 76.3057 323.684C76.6988 323.061 77.1386 322.47 77.6215 321.914Z" fill="#263238"/>
<path d="M36.0396 368.082H79.6154L74.3426 412.577H41.4672L36.0396 368.082Z" fill="#455A64"/>
<path d="M37.6353 407.778L41.3311 412.577H74.3419L78.1442 407.924L37.6353 407.778Z" fill="#263238"/>
<path d="M77.9112 381.163C77.9112 381.347 68.8749 381.492 57.7197 381.492C46.5645 381.492 37.5571 381.347 37.5571 381.163C37.5571 380.979 46.5935 380.844 57.7487 380.844C68.9039 380.844 77.9112 380.989 77.9112 381.163Z" fill="white"/>
<path d="M77.9112 384.133C77.9112 384.307 68.8749 384.452 57.7197 384.452C46.5645 384.452 37.5571 384.307 37.5571 384.133C37.5571 383.959 46.5935 383.804 57.7487 383.804C68.9039 383.804 77.9112 383.949 77.9112 384.133Z" fill="white"/>
<path d="M77.37 386.997C77.37 387.181 68.6626 387.326 57.8847 387.326C47.1068 387.326 38.3994 387.181 38.3994 386.997C38.3994 386.813 47.1068 386.668 57.8847 386.668C68.6626 386.668 77.37 386.823 77.37 386.997Z" fill="white"/>
<path d="M421.478 412.626C421.478 412.771 327.119 412.877 210.749 412.877C94.3789 412.877 0 412.771 0 412.626C0 412.481 94.3402 412.374 210.749 412.374C327.158 412.374 421.478 412.49 421.478 412.626Z" fill="#263238"/>
<path d="M404.179 105.05C400.928 100.938 400.861 93.4403 400.967 91.4376C401.219 86.8807 391.06 60.2844 365.886 71.2654C356.859 71.2654 356.714 80.176 355.001 81.9659C353.289 83.7557 351.383 85.623 350.928 88.0611C350.135 92.3858 354.237 96.5847 353.192 100.851C352.805 102.448 351.731 103.812 350.977 105.273C350.164 106.579 349.526 108.707 349.874 109.888C350.31 111.04 350.885 112.135 351.586 113.148C352.295 114.171 352.62 115.411 352.505 116.65C352.109 118.837 349.603 120.056 348.887 122.175C348.171 124.294 349.525 126.403 350.716 128.231C351.906 130.06 353.047 132.372 352.089 134.336C351.455 135.31 350.667 136.176 349.758 136.9C348.533 138.175 347.711 139.783 347.394 141.523C347.077 143.262 347.28 145.057 347.978 146.681L362.49 143.779C363.135 136.884 363.78 129.983 364.425 123.075C368.663 124.129 373.297 121.42 375.309 120.907L377.776 119.572C383.175 120.54 388.999 120.182 393.73 117.424C398.461 114.667 405.476 118.198 404.556 112.79C404.044 110.197 405.834 107.13 404.179 105.05Z" fill="#263238"/>
<path d="M387.674 79.8857L367.967 74.0808C361.62 73.1133 357.073 80.8532 356.405 87.2C355.67 94.2917 355.06 102.98 355.689 108.311C356.947 119.05 365.064 120.733 365.064 120.733C365.064 120.733 363.642 135.933 363.516 139.735L387.79 127.274L390.857 83.8234C390.914 82.8882 390.619 81.9657 390.03 81.2371C389.441 80.5085 388.601 80.0265 387.674 79.8857Z" fill="#FFD3C1"/>
<path d="M357.633 95.9172C357.615 96.2728 357.736 96.6217 357.971 96.8892C358.206 97.1568 358.536 97.3218 358.891 97.3491C359.064 97.3706 359.24 97.3572 359.408 97.3096C359.576 97.2621 359.732 97.1813 359.869 97.0722C360.005 96.9631 360.118 96.8278 360.201 96.6743C360.284 96.5208 360.335 96.3522 360.352 96.1784C360.371 95.8228 360.25 95.474 360.015 95.2065C359.78 94.9389 359.449 94.7739 359.094 94.7466C358.921 94.7237 358.745 94.7361 358.576 94.7832C358.408 94.8302 358.25 94.9108 358.114 95.0202C357.977 95.1295 357.864 95.2654 357.782 95.4196C357.699 95.5737 357.649 95.743 357.633 95.9172Z" fill="#263238"/>
<path d="M356.898 92.7919C357.819 92.8593 358.737 92.9756 359.646 93.1402C360.521 93.4951 361.376 93.8956 362.209 94.3399C362.306 94.3399 362.21 94.0206 361.803 93.6336C361.226 93.1144 360.538 92.7338 359.791 92.521C359.067 92.2994 358.3 92.2563 357.556 92.3952C357.043 92.521 356.83 92.7048 356.898 92.7919Z" fill="#263238"/>
<path d="M371.275 97.0297C371.259 97.3862 371.382 97.7351 371.619 98.0023C371.856 98.2696 372.187 98.4343 372.543 98.4616C372.716 98.4817 372.892 98.4669 373.06 98.4182C373.228 98.3695 373.385 98.2879 373.521 98.178C373.657 98.0681 373.77 97.9322 373.853 97.7782C373.935 97.6242 373.987 97.4553 374.004 97.2812C374.017 96.9253 373.893 96.5778 373.657 96.3111C373.421 96.0443 373.091 95.879 372.736 95.8493C372.563 95.8292 372.387 95.844 372.219 95.8927C372.051 95.9413 371.894 96.023 371.758 96.1329C371.622 96.2428 371.509 96.3787 371.426 96.5327C371.344 96.6867 371.292 96.8556 371.275 97.0297Z" fill="#263238"/>
<path d="M371.526 94.7272C371.739 94.824 372.794 94.1177 374.429 93.8855C376.064 93.6533 377.38 94.0113 377.534 93.8855C377.689 93.7597 377.38 93.6049 376.809 93.4405C375.989 93.2212 375.132 93.1751 374.293 93.305C373.476 93.4048 372.692 93.6893 372 94.1371C371.546 94.4273 371.42 94.6788 371.526 94.7272Z" fill="#263238"/>
<path d="M366.438 104.334C365.674 104.055 364.877 103.876 364.067 103.802C363.69 103.754 363.342 103.657 363.293 103.405C363.276 103.011 363.384 102.621 363.603 102.293C363.99 101.393 364.406 100.455 364.832 99.4678C366.535 95.4624 367.792 92.1536 367.628 92.0858C367.463 92.0181 365.954 95.2205 364.242 99.2259C363.835 100.193 363.439 101.161 363.061 102.061C362.808 102.506 362.719 103.027 362.81 103.531C362.86 103.664 362.939 103.784 363.041 103.882C363.143 103.981 363.266 104.056 363.4 104.102C363.607 104.169 363.821 104.208 364.038 104.218C364.831 104.355 365.636 104.394 366.438 104.334Z" fill="#263238"/>
<path d="M365.064 120.675C370.026 121.047 374.989 119.975 379.354 117.589C379.228 117.589 374.981 125.009 364.842 123.5L365.064 120.675Z" fill="#F4AF9B"/>
<path d="M366.921 107.904C367.216 107.563 367.592 107.302 368.016 107.147C368.439 106.991 368.894 106.945 369.34 107.014C369.663 107.057 369.975 107.165 370.256 107.331C370.537 107.498 370.781 107.719 370.975 107.982C371.162 108.233 371.266 108.536 371.275 108.85C371.284 109.163 371.196 109.471 371.023 109.733C370.777 109.984 370.462 110.157 370.118 110.231C369.774 110.305 369.416 110.276 369.088 110.149C368.404 109.872 367.779 109.464 367.25 108.949C367.088 108.826 366.953 108.672 366.853 108.494C366.799 108.414 366.771 108.32 366.771 108.223C366.771 108.127 366.799 108.033 366.853 107.953" fill="#F4AF9B"/>
<path d="M370.734 105.524C370.492 105.524 370.424 107.101 369.011 108.175C367.599 109.249 365.906 109.007 365.886 109.23C365.867 109.452 366.254 109.559 366.97 109.607C367.904 109.655 368.825 109.375 369.573 108.814C370.29 108.272 370.771 107.475 370.917 106.589C371.004 105.921 370.84 105.515 370.734 105.524Z" fill="#263238"/>
<path d="M371.711 89.4929C371.846 89.8896 373.317 89.7638 375.039 90.0444C376.761 90.3249 378.135 90.8474 378.377 90.4991C378.483 90.3249 378.261 89.9476 377.709 89.5316C376.976 89.027 376.138 88.696 375.258 88.5636C374.378 88.4312 373.479 88.5008 372.63 88.7673C371.991 88.9898 371.662 89.2994 371.711 89.4929Z" fill="#263238"/>
<path d="M358.485 88.535C358.727 88.8833 359.753 88.535 360.972 88.6124C362.191 88.6898 363.216 88.922 363.468 88.6124C363.584 88.448 363.468 88.1094 362.994 87.7707C362.398 87.3735 361.698 87.1615 360.981 87.1615C360.265 87.1615 359.565 87.3735 358.969 87.7707C358.534 88.032 358.369 88.3706 358.485 88.535Z" fill="#263238"/>
<path d="M365.644 72.6586C373.582 73.9079 381.342 76.1037 388.757 79.1989C390.479 79.9245 392.279 80.7662 393.246 82.3529C394.214 83.9396 394.136 86.1455 393.972 88.1578L391.505 116.805L390.479 116.747C387.577 117.231 387.325 115.722 385.206 113.603C384.16 112.528 383.377 111.225 382.92 109.796C382.463 108.368 382.345 106.852 382.575 105.37C383.001 102.767 384.51 100.155 383.697 97.6296C382.623 94.3014 378.066 93.1211 376.973 89.8026C376.344 87.8676 377.06 85.6811 376.325 83.7848C375.59 81.8885 373.838 80.8823 372.068 80.2051C370.297 79.5278 368.391 78.9667 366.931 77.7379C365.47 76.5092 364.57 74.2356 365.644 72.6586Z" fill="#263238"/>
<path d="M300.977 53.4636H222.881C219.702 53.4636 217.125 56.0409 217.125 59.2202V121.991C217.125 125.17 219.702 127.748 222.881 127.748H300.977C304.156 127.748 306.734 125.17 306.734 121.991V59.2202C306.734 56.0409 304.156 53.4636 300.977 53.4636Z" fill="#263238"/>
<path d="M261.929 102.08C269.062 102.08 274.845 96.2972 274.845 89.1639C274.845 82.0306 269.062 76.2479 261.929 76.2479C254.795 76.2479 249.013 82.0306 249.013 89.1639C249.013 96.2972 254.795 102.08 261.929 102.08Z" fill="#0086CF"/>
<path d="M258.824 92.9468V85.323C258.824 85.2389 258.846 85.1562 258.887 85.0831C258.929 85.0099 258.989 84.9489 259.061 84.9059C259.133 84.8629 259.215 84.8395 259.299 84.838C259.383 84.8365 259.466 84.8569 259.54 84.8973L266.313 88.7673C266.387 88.8108 266.449 88.873 266.491 88.9476C266.534 89.0223 266.557 89.1069 266.557 89.193C266.557 89.279 266.534 89.3636 266.491 89.4383C266.449 89.513 266.387 89.5751 266.313 89.6187L259.54 93.3919C259.465 93.4366 259.38 93.4599 259.293 93.4591C259.206 93.4584 259.121 93.4337 259.047 93.3877C258.973 93.3417 258.913 93.2762 258.873 93.1985C258.834 93.1207 258.817 93.0336 258.824 92.9468Z" fill="white"/>
<path d="M342.976 377.583L345.221 399.11C345.221 399.11 324.091 408.611 324.11 412.655L366.002 409.83L363.893 376.093L342.976 377.583Z" fill="#455A64"/>
<g opacity="0.3">
<path opacity="0.3" d="M342.976 377.583L345.221 399.11C345.221 399.11 324.091 408.611 324.11 412.655L366.002 409.83L363.893 376.093L342.976 377.583Z" fill="black"/>
</g>
<g opacity="0.6">
<path opacity="0.6" d="M358.04 396.41C358.45 396.505 358.812 396.748 359.055 397.093C359.297 397.437 359.404 397.859 359.356 398.278C359.275 398.693 359.039 399.062 358.695 399.308C358.352 399.555 357.927 399.66 357.508 399.603C357.072 399.499 356.69 399.239 356.435 398.871C356.18 398.503 356.069 398.054 356.124 397.61C356.252 397.187 356.54 396.829 356.926 396.613C357.312 396.396 357.766 396.338 358.195 396.449" fill="white"/>
</g>
<g opacity="0.6">
<path opacity="0.6" d="M365.992 409.801L365.653 406.405L325.609 410.391C325.609 410.391 323.8 411.358 324.099 412.626L365.992 409.801Z" fill="white"/>
</g>
<path d="M344.515 398.945C344.515 399.148 345.569 399.168 346.614 399.758C347.659 400.348 348.259 401.17 348.443 401.083C348.627 400.996 348.24 399.826 346.953 399.148C345.666 398.471 344.457 398.761 344.515 398.945Z" fill="#263238"/>
<path d="M340.248 401.055C340.248 401.258 341.119 401.548 341.874 402.361C342.628 403.173 342.841 404.083 343.093 404.063C343.344 404.044 343.344 402.873 342.386 401.877C341.428 400.88 340.238 400.861 340.248 401.055Z" fill="#263238"/>
<path d="M338.1 406.482C338.293 406.482 338.506 405.515 337.906 404.392C337.307 403.27 336.32 402.922 336.242 403.096C336.165 403.27 336.803 403.831 337.277 404.731C337.752 405.631 337.897 406.482 338.1 406.482Z" fill="#263238"/>
<path d="M344.552 393.982C344.649 394.156 345.568 393.818 346.729 393.818C347.89 393.818 348.819 394.118 348.906 393.934C348.993 393.75 348.093 393.082 346.72 393.102C345.346 393.121 344.436 393.827 344.552 393.982Z" fill="#263238"/>
<path d="M344.176 389.638C344.877 389.778 345.602 389.724 346.275 389.483C347.023 389.299 347.744 389.023 348.423 388.661C348.826 388.449 349.214 388.21 349.584 387.945C349.812 387.798 350.015 387.615 350.184 387.403C350.307 387.247 350.374 387.055 350.374 386.856C350.374 386.658 350.307 386.465 350.184 386.31C350.073 386.175 349.932 386.068 349.773 385.997C349.613 385.926 349.439 385.894 349.265 385.903C348.997 385.917 348.732 385.972 348.481 386.068C348.041 386.208 347.614 386.386 347.204 386.6C346.519 386.969 345.896 387.442 345.356 388.003C344.447 388.97 344.166 389.754 344.243 389.793C344.321 389.831 344.766 389.183 345.704 388.371C346.25 387.9 346.855 387.504 347.504 387.19C347.886 387.01 348.28 386.858 348.684 386.735C349.12 386.59 349.497 386.561 349.652 386.735C349.807 386.91 349.71 386.842 349.652 386.977C349.522 387.126 349.376 387.259 349.216 387.374C348.858 387.635 348.5 387.867 348.142 388.08C347.527 388.443 346.879 388.747 346.207 388.99C345.516 389.157 344.837 389.374 344.176 389.638Z" fill="#263238"/>
<path d="M344.466 389.909C344.82 389.28 344.966 388.555 344.882 387.839C344.864 387.061 344.713 386.292 344.436 385.565C344.275 385.131 344.068 384.716 343.817 384.327C343.686 384.057 343.487 383.826 343.239 383.656C342.991 383.486 342.704 383.384 342.405 383.359C342.219 383.374 342.042 383.443 341.895 383.556C341.747 383.669 341.635 383.822 341.573 383.998C341.487 384.251 341.432 384.514 341.408 384.781C341.307 386.06 341.717 387.327 342.55 388.303C343.44 389.338 344.311 389.522 344.32 389.454C344.33 389.387 343.643 388.999 342.947 387.993C342.541 387.415 342.267 386.754 342.144 386.058C342.09 385.657 342.09 385.25 342.144 384.849C342.144 384.394 342.318 384.027 342.492 384.056C342.666 384.085 343.072 384.356 343.275 384.694C343.502 385.045 343.699 385.414 343.866 385.797C344.15 386.457 344.335 387.154 344.417 387.868C344.514 389.096 344.349 389.88 344.466 389.909Z" fill="#263238"/>
<path d="M339.338 220.037C339.338 220.037 320.781 304.286 320.21 311.813C319.64 319.34 343.217 384.278 343.217 384.278L363.535 380.408C363.535 380.408 362.248 284.501 361.6 282.624C360.951 280.747 366.776 233.601 366.776 233.601L339.338 220.037Z" fill="#263238"/>
<path d="M352.303 378.589L352.525 400.222C352.525 400.222 330.602 407.721 330.273 411.726L372.243 412.161L373.278 379.063L352.303 378.589Z" fill="#455A64"/>
<g opacity="0.6">
<path opacity="0.6" d="M365.538 398.742C365.929 398.873 366.26 399.141 366.47 399.496C366.68 399.852 366.754 400.271 366.679 400.677C366.56 401.076 366.294 401.415 365.935 401.627C365.576 401.839 365.151 401.907 364.744 401.819C364.32 401.677 363.964 401.382 363.744 400.993C363.524 400.603 363.457 400.146 363.554 399.71C363.718 399.298 364.037 398.967 364.441 398.786C364.846 398.606 365.305 398.59 365.721 398.742" fill="white"/>
</g>
<g opacity="0.6">
<path opacity="0.6" d="M372.223 412.161V409.394L331.985 409.636C331.985 409.636 330.098 410.4 330.273 411.726L372.223 412.161Z" fill="white"/>
</g>
<path d="M351.847 400C351.847 400.203 352.873 400.319 353.869 400.967C354.866 401.616 355.369 402.525 355.562 402.448C355.756 402.37 355.475 401.18 354.266 400.377C353.056 399.574 351.808 399.806 351.847 400Z" fill="#263238"/>
<path d="M347.397 401.703C347.349 401.906 348.229 402.274 348.897 403.154C349.564 404.035 349.758 404.963 349.961 404.963C350.164 404.963 350.319 403.802 349.467 402.719C348.616 401.635 347.407 401.509 347.397 401.703Z" fill="#263238"/>
<path d="M344.766 406.908C344.95 406.908 345.259 405.94 344.766 404.808C344.272 403.676 343.324 403.202 343.228 403.367C343.131 403.531 343.711 404.151 344.108 405.089C344.505 406.027 344.563 406.889 344.766 406.908Z" fill="#263238"/>
<path d="M352.351 395.056C352.429 395.25 353.377 394.988 354.528 395.056C355.68 395.124 356.579 395.559 356.695 395.385C356.811 395.211 355.96 394.418 354.596 394.35C353.232 394.282 352.255 394.892 352.351 395.056Z" fill="#263238"/>
<g opacity="0.3">
<path opacity="0.3" d="M352.352 382.875L352.381 386.726L373.017 387.064L373.133 383.591L352.352 382.875Z" fill="black"/>
</g>
<path d="M352.38 390.693C353.067 390.886 353.793 390.886 354.48 390.693C355.244 390.578 355.992 390.37 356.705 390.073C357.125 389.899 357.533 389.696 357.924 389.464C358.164 389.341 358.383 389.181 358.572 388.99C358.71 388.846 358.797 388.662 358.819 388.464C358.842 388.267 358.799 388.067 358.698 387.896C358.598 387.752 358.465 387.632 358.311 387.548C358.156 387.464 357.984 387.418 357.808 387.413C357.541 387.399 357.273 387.428 357.015 387.5C356.563 387.595 356.123 387.734 355.699 387.916C354.994 388.218 354.341 388.63 353.764 389.135C352.796 390.015 352.419 390.77 352.487 390.809C352.555 390.847 353.067 390.247 354.073 389.532C354.674 389.126 355.324 388.801 356.008 388.564C356.404 388.414 356.812 388.297 357.228 388.216C357.673 388.119 358.05 388.119 358.195 388.322C358.34 388.525 358.243 388.429 358.147 388.554C358.007 388.693 357.847 388.811 357.673 388.903C357.308 389.128 356.93 389.332 356.541 389.512C355.882 389.82 355.195 390.063 354.489 390.238C353.776 390.336 353.071 390.488 352.38 390.693Z" fill="#263238"/>
<path d="M352.642 390.993C353.051 390.402 353.264 389.698 353.251 388.98C353.304 388.202 353.226 387.42 353.019 386.668C352.898 386.222 352.729 385.791 352.516 385.381C352.41 385.099 352.234 384.849 352.003 384.656C351.773 384.463 351.496 384.333 351.2 384.278C351.012 384.277 350.828 384.33 350.67 384.431C350.512 384.533 350.387 384.678 350.31 384.849C350.194 385.09 350.116 385.348 350.078 385.613C350.001 386.081 350.001 386.558 350.078 387.026C350.173 387.816 350.462 388.57 350.919 389.222C351.713 390.325 352.564 390.596 352.574 390.528C352.584 390.46 351.945 390.015 351.345 388.951C350.998 388.339 350.786 387.659 350.726 386.958C350.694 386.553 350.72 386.146 350.803 385.749C350.881 385.304 351.055 384.946 351.219 384.994C351.384 385.042 351.771 385.342 351.935 385.7C352.131 386.07 352.296 386.455 352.429 386.852C352.643 387.535 352.764 388.245 352.787 388.961C352.767 390.199 352.535 390.954 352.642 390.993Z" fill="#263238"/>
<path d="M386.503 218.74L339.338 220.037L346.11 303.957L350.309 384.849L374.777 385.7C376.025 370.085 376.112 314.909 376.112 314.909L381.017 281.589C382.159 272.601 385.768 263.158 387.509 255.089C388.525 250.358 390.015 244.214 390.334 242.202C391.312 236.271 386.503 218.74 386.503 218.74Z" fill="#263238"/>
<path d="M342.086 239.348C342.096 239.473 342.096 239.6 342.086 239.725C342.086 239.996 342.086 240.364 342.086 240.828C342.086 241.796 341.989 243.247 341.921 245.066C341.853 246.885 341.747 249.158 341.67 251.77C341.592 254.383 341.457 257.362 341.399 260.652C341.215 267.231 341.118 275.068 341.157 283.775C341.195 292.482 341.428 302.041 341.921 312.074C342.415 322.107 343.189 331.656 344.059 340.315C344.533 344.64 344.949 348.752 345.472 352.593C345.723 354.528 345.936 356.366 346.188 358.146C346.439 359.926 346.701 361.629 346.942 363.255C347.387 366.515 347.91 369.446 348.326 372.03C348.742 374.613 349.139 376.867 349.487 378.638L350.232 382.808C350.309 383.272 350.377 383.63 350.416 383.891C350.426 384.017 350.426 384.143 350.416 384.268C350.374 384.149 350.342 384.026 350.319 383.901C350.271 383.64 350.193 383.282 350.096 382.827C349.893 381.859 349.613 380.457 349.255 378.667C348.897 376.877 348.452 374.652 348.016 372.068C347.581 369.485 347.049 366.563 346.555 363.303C346.304 361.678 346.043 359.975 345.772 358.195C345.511 356.414 345.288 354.557 345.027 352.641C344.485 348.771 344.059 344.688 343.566 340.354C342.676 331.695 341.902 322.146 341.389 312.103C340.876 302.061 340.702 292.482 340.663 283.775C340.625 275.068 340.789 267.221 341.012 260.642C341.089 257.353 341.244 254.373 341.35 251.761C341.457 249.148 341.573 246.923 341.679 245.056C341.786 243.189 341.882 241.815 341.94 240.818C341.94 240.354 341.999 239.996 342.018 239.725C342.03 239.598 342.052 239.471 342.086 239.348Z" fill="#455A64"/>
<path d="M315.238 127.119L303.164 114.222L293.644 120.888L303.164 134.975L315.238 127.119Z" fill="#FFD3C1"/>
<path d="M391.602 131.879L391.022 123.703L363.748 123.316L363.516 133.581C363.516 133.581 350.126 148.094 345.259 164.299C337.094 191.602 334.133 226.354 334.133 226.354H389.948C389.367 216.737 385.401 195.22 385.401 195.22L397.804 158.214C400.89 144.911 391.602 131.879 391.602 131.879Z" fill="#0086CF"/>
<path d="M324.071 168.827C324.071 168.827 324.226 168.982 324.536 169.243C324.98 169.647 325.456 170.016 325.958 170.346C327.792 171.582 329.883 172.386 332.072 172.697C333.582 172.913 335.115 172.896 336.62 172.649C338.235 172.465 339.967 172.243 341.786 172.001C345.434 171.507 349.429 170.888 353.609 170.182L374.99 166.438L381.482 165.373L383.253 165.093L383.862 164.977L383.243 165.054L381.473 165.296C379.934 165.509 377.709 165.847 374.961 166.264C369.476 167.144 361.929 168.537 353.57 169.959C349.391 170.666 345.404 171.285 341.767 171.788C339.948 172.03 338.216 172.262 336.591 172.455C332.909 173.074 329.129 172.29 325.997 170.259C325.5 169.931 325.022 169.576 324.565 169.195C324.245 168.953 324.071 168.827 324.071 168.827Z" fill="#263238"/>
<path d="M393.325 155.64C393.355 155.57 393.375 155.495 393.383 155.418C393.383 155.224 393.47 155.011 393.518 154.789C393.625 154.237 393.76 153.444 393.905 152.448C394.328 149.862 394.259 147.22 393.702 144.659C393.079 142.078 391.534 139.814 389.358 138.293C388.697 137.854 387.968 137.528 387.201 137.326C386.922 137.246 386.637 137.19 386.349 137.161C387.384 137.409 388.366 137.838 389.252 138.429C391.361 139.957 392.856 142.186 393.47 144.717C394.022 147.261 394.107 149.883 393.721 152.457C393.605 153.425 393.489 154.247 393.402 154.799C393.402 155.031 393.373 155.244 393.315 155.437C393.31 155.505 393.313 155.573 393.325 155.64Z" fill="#263238"/>
<path d="M335.265 162.277C335.281 162.075 335.281 161.871 335.265 161.668L335.111 160.004C334.961 158.179 334.906 156.348 334.946 154.518C334.998 152.687 335.143 150.859 335.381 149.042C335.468 148.452 335.546 147.91 335.623 147.397C335.662 147.196 335.684 146.993 335.691 146.788C335.626 146.981 335.575 147.178 335.536 147.378C335.449 147.765 335.343 148.346 335.236 149.023C334.66 152.661 334.565 156.36 334.956 160.023C335.033 160.72 335.111 161.291 335.178 161.678C335.187 161.88 335.216 162.081 335.265 162.277Z" fill="#263238"/>
<path d="M363.835 133.427C364.519 131.529 365.527 129.765 366.815 128.212C368.75 125.571 370.878 122.804 373.926 121.556C375.996 120.714 381.347 121.178 382.779 119.456C387.229 114.058 380.708 110.749 383.069 103.29C385.671 95.1723 384.326 96.4203 384.53 90.0252L394.408 85.7586C395.965 86.9196 400.28 91.1088 399.806 92.9954C399.346 95.0602 399.477 97.2128 400.184 99.2067C401.703 103.976 406.956 106.782 409.433 111.126C411.91 115.47 409.104 121.469 409.036 126.606C408.969 131.743 410.904 137.887 415.905 139C414.014 142.782 410.935 145.84 407.14 147.707L404.005 143.44C404.256 145.39 403.811 147.366 402.749 149.02C401.688 150.675 400.077 151.902 398.2 152.487C397.146 147.988 396.043 143.363 393.314 139.629C390.586 135.894 385.855 133.253 381.395 134.452C378.405 135.246 376.103 137.548 373.433 139.106C370.762 140.664 366.989 141.331 364.861 139.106C364.214 138.328 363.78 137.397 363.601 136.401C363.421 135.406 363.502 134.382 363.835 133.427Z" fill="#263238"/>
<g opacity="0.3">
<path opacity="0.3" d="M345.22 171.352C358.088 169.011 375.212 166.205 388.08 163.854C388.554 163.719 389.057 163.719 389.531 163.854C389.934 164.076 390.234 164.445 390.367 164.884C390.501 165.323 390.458 165.797 390.247 166.205C389.79 167.008 389.084 167.64 388.235 168.005C384.007 170.211 379.063 170.395 374.303 170.52L345.22 171.343V171.352Z" fill="black"/>
</g>
<path d="M335.865 172.639C339.871 172.717 385.923 164.299 385.923 164.299L335.865 172.639Z" fill="#0086CF"/>
<path d="M385.139 135.546C388.516 135.962 390.712 136.513 394.66 140.77C395.116 141.272 395.509 141.827 395.83 142.425C400.223 150.165 397.049 160.807 388.632 163.758L380.486 165.432L335.865 172.639C335.865 172.639 326.364 174.768 318.199 162.103C315.209 157.45 294.592 126.703 294.592 126.703L308.137 117.637L335.439 146.846L385.139 135.546Z" fill="#0086CF"/>
<path d="M324.071 168.827C324.071 168.827 324.226 168.982 324.536 169.243C324.98 169.647 325.456 170.016 325.958 170.346C327.792 171.582 329.883 172.386 332.072 172.697C333.582 172.913 335.115 172.896 336.62 172.649C338.235 172.465 339.967 172.243 341.786 172.001C345.434 171.507 349.429 170.888 353.609 170.182L374.99 166.438L381.482 165.373L383.253 165.093L383.862 164.977L383.243 165.054L381.473 165.296C379.934 165.509 377.709 165.847 374.961 166.264C369.476 167.144 361.929 168.537 353.57 169.959C349.391 170.666 345.404 171.285 341.767 171.788C339.948 172.03 338.216 172.262 336.591 172.455C332.909 173.074 329.129 172.29 325.997 170.259C325.5 169.931 325.022 169.576 324.565 169.195C324.245 168.953 324.071 168.827 324.071 168.827Z" fill="#263238"/>
<path d="M393.325 155.64C393.355 155.57 393.375 155.495 393.383 155.418C393.383 155.224 393.47 155.011 393.518 154.789C393.625 154.237 393.76 153.444 393.905 152.448C394.328 149.862 394.259 147.22 393.702 144.659C393.079 142.078 391.534 139.814 389.358 138.293C388.697 137.854 387.968 137.528 387.201 137.326C386.922 137.246 386.637 137.19 386.349 137.161C387.384 137.409 388.366 137.838 389.252 138.429C391.361 139.957 392.856 142.186 393.47 144.717C394.022 147.261 394.107 149.883 393.721 152.457C393.605 153.425 393.489 154.247 393.402 154.799C393.402 155.031 393.373 155.244 393.315 155.437C393.31 155.505 393.313 155.573 393.325 155.64Z" fill="#263238"/>
<path d="M335.265 162.277C335.281 162.075 335.281 161.871 335.265 161.668L335.111 160.004C334.961 158.179 334.906 156.348 334.946 154.518C334.998 152.687 335.143 150.859 335.381 149.042C335.468 148.452 335.546 147.91 335.623 147.397C335.662 147.196 335.684 146.993 335.691 146.788C335.626 146.981 335.575 147.178 335.536 147.378C335.449 147.765 335.343 148.346 335.236 149.023C334.66 152.661 334.565 156.36 334.956 160.023C335.033 160.72 335.111 161.291 335.178 161.678C335.187 161.88 335.216 162.081 335.265 162.277Z" fill="#263238"/>
<path d="M303.105 104.228C302.836 102.39 302.752 100.529 302.854 98.6743C302.863 98.5801 302.851 98.4849 302.819 98.3959C302.786 98.3069 302.734 98.2263 302.666 98.1603C302.599 98.0942 302.517 98.0444 302.427 98.0144C302.337 97.9845 302.241 97.9753 302.147 97.9874C301.566 98.0637 301.019 98.3101 300.577 98.6956C300.135 99.0811 299.816 99.5887 299.661 100.155C299.362 101.168 299.267 102.23 299.38 103.28C299.38 105.002 299.38 106.366 299.38 106.366C299.38 106.366 290.789 96.0814 289.048 95.617C288.903 95.5469 288.746 95.5063 288.585 95.4976C288.425 95.4889 288.264 95.5122 288.113 95.5663C287.962 95.6203 287.823 95.704 287.704 95.8124C287.585 95.9208 287.49 96.0517 287.422 96.1975C287.103 96.7103 287.741 97.91 287.741 97.91L292.579 104.837C292.579 104.837 285.255 96.2266 283.929 96.2459C282.604 96.2653 281.995 97.2134 282.856 98.8098C283.484 99.9804 289.88 107.517 289.88 107.517C289.88 107.517 283.039 100.919 281.675 100.967C280.311 101.016 280.543 102.467 281.259 103.067C281.975 103.667 287.064 109.559 287.064 109.559C287.064 109.559 282.12 105.379 281.124 105.689C280.127 105.998 280.553 107.121 281.075 108.02C281.598 108.92 294.001 121.314 294.001 121.314L304.76 115.915C305.039 114.406 304.983 112.853 304.595 111.368C303.945 109.022 303.448 106.637 303.105 104.228Z" fill="#FFD3C1"/>
<path d="M145.133 226.432C142.515 226.422 140.007 225.375 138.16 223.52C136.312 221.665 135.274 219.153 135.274 216.535V130.486C135.35 128.314 136.284 126.26 137.87 124.775C139.457 123.29 141.568 122.494 143.74 122.562H151.828C153.42 122.594 154.988 122.179 156.356 121.365C157.724 120.551 158.837 119.371 159.568 117.957L161.3 114.425C162.028 113.019 163.133 111.843 164.491 111.03C165.85 110.217 167.408 109.798 168.992 109.82H207.391C208.834 109.802 210.259 110.146 211.534 110.822C212.808 111.499 213.893 112.485 214.686 113.69L216.573 116.68C217.365 117.884 218.447 118.87 219.721 119.546C220.994 120.223 222.417 120.568 223.858 120.55H272.813C274.988 120.479 277.101 121.276 278.689 122.763C280.276 124.251 281.208 126.309 281.279 128.483V216.525C281.279 219.15 280.236 221.667 278.38 223.524C276.524 225.38 274.006 226.422 271.381 226.422L145.133 226.432Z" fill="#0086CF"/>
<g opacity="0.3">
<path opacity="0.3" d="M145.133 226.432C142.515 226.422 140.007 225.375 138.16 223.52C136.312 221.665 135.274 219.153 135.274 216.535V130.486C135.35 128.314 136.284 126.26 137.87 124.775C139.457 123.29 141.568 122.494 143.74 122.562H151.828C153.42 122.594 154.988 122.179 156.356 121.365C157.724 120.551 158.837 119.371 159.568 117.957L161.3 114.425C162.028 113.019 163.133 111.843 164.491 111.03C165.85 110.217 167.408 109.798 168.992 109.82H207.391C208.834 109.802 210.259 110.146 211.534 110.822C212.808 111.499 213.893 112.485 214.686 113.69L216.573 116.68C217.365 117.884 218.447 118.87 219.721 119.546C220.994 120.223 222.417 120.568 223.858 120.55H272.813C274.988 120.479 277.101 121.276 278.689 122.763C280.276 124.251 281.208 126.309 281.279 128.483V216.525C281.279 219.15 280.236 221.667 278.38 223.524C276.524 225.38 274.006 226.422 271.381 226.422L145.133 226.432Z" fill="black"/>
</g>
<path d="M218.944 120.598L187.791 120.53L185.014 115.325C184.07 113.635 182.687 112.232 181.011 111.263C179.335 110.294 177.429 109.796 175.494 109.82H145.047C139.629 109.82 135.236 113.932 135.236 119.011V215.993C135.236 221.798 140.229 226.432 146.382 226.432H270.047C276.21 226.432 281.192 221.759 281.192 215.993V127.728C281.192 125.837 280.441 124.024 279.104 122.686C277.767 121.349 275.953 120.598 274.062 120.598H218.944Z" fill="#0086CF"/>
<path d="M234.646 194.089H220.859C220.603 194.089 220.357 193.987 220.175 193.805C219.994 193.624 219.892 193.378 219.892 193.121C219.892 192.864 219.994 192.618 220.175 192.437C220.357 192.255 220.603 192.154 220.859 192.154H234.646C238.221 192.161 241.658 190.771 244.223 188.28C246.788 185.79 248.279 182.396 248.377 178.822C248.476 175.248 247.174 171.777 244.75 169.149C242.326 166.521 238.971 164.944 235.401 164.754C235.194 164.744 234.997 164.668 234.836 164.538C234.676 164.407 234.562 164.229 234.511 164.029C233.492 160.095 231.4 156.523 228.468 153.711C225.535 150.899 221.879 148.957 217.906 148.104C213.934 147.251 209.803 147.519 205.974 148.879C202.146 150.239 198.771 152.637 196.227 155.805C196.123 155.935 195.988 156.037 195.834 156.099C195.68 156.162 195.512 156.184 195.347 156.163C194.654 156.073 193.956 156.028 193.257 156.027C188.54 156.137 184.053 158.087 180.755 161.462C177.458 164.836 175.612 169.367 175.612 174.086C175.612 178.804 177.458 183.335 180.755 186.71C184.053 190.084 188.54 192.035 193.257 192.144H204.431C204.688 192.144 204.934 192.246 205.115 192.427C205.297 192.609 205.399 192.855 205.399 193.111C205.399 193.368 205.297 193.614 205.115 193.795C204.934 193.977 204.688 194.079 204.431 194.079H193.208C187.902 194.079 182.813 191.971 179.061 188.219C175.309 184.467 173.201 179.378 173.201 174.071C173.201 168.765 175.309 163.676 179.061 159.924C182.813 156.171 187.902 154.063 193.208 154.063C193.803 154.064 194.397 154.096 194.989 154.16C197.767 150.839 201.397 148.337 205.489 146.922C209.581 145.507 213.981 145.232 218.217 146.127C222.454 147.022 226.367 149.052 229.537 152.001C232.707 154.951 235.015 158.707 236.213 162.868C240.232 163.241 243.952 165.153 246.595 168.204C249.238 171.254 250.6 175.208 250.398 179.239C250.196 183.27 248.444 187.067 245.509 189.838C242.574 192.608 238.682 194.138 234.646 194.108V194.089Z" fill="white"/>
<path d="M212.355 202.912C212.098 202.912 211.852 202.81 211.671 202.629C211.489 202.447 211.387 202.201 211.387 201.945V176.79C211.387 176.533 211.489 176.287 211.671 176.106C211.852 175.924 212.098 175.823 212.355 175.823C212.611 175.823 212.857 175.924 213.039 176.106C213.22 176.287 213.322 176.533 213.322 176.79V201.945C213.322 202.201 213.22 202.447 213.039 202.629C212.857 202.81 212.611 202.912 212.355 202.912Z" fill="white"/>
<path d="M219.708 186.803C219.556 186.805 219.406 186.771 219.27 186.703C219.134 186.636 219.015 186.538 218.924 186.416L212.519 177.825C212.496 177.797 212.466 177.774 212.433 177.759C212.399 177.744 212.363 177.737 212.326 177.738C212.291 177.739 212.256 177.747 212.225 177.762C212.193 177.777 212.165 177.799 212.142 177.825L205.37 186.174C205.207 186.376 204.97 186.504 204.713 186.532C204.455 186.559 204.197 186.483 203.996 186.32C203.794 186.157 203.666 185.92 203.639 185.663C203.611 185.405 203.688 185.147 203.851 184.946L210.623 176.596C210.836 176.341 211.102 176.136 211.403 175.996C211.704 175.856 212.032 175.783 212.365 175.784C212.695 175.788 213.02 175.868 213.315 176.018C213.61 176.167 213.868 176.381 214.067 176.645L220.492 185.246C220.569 185.348 220.625 185.465 220.656 185.59C220.688 185.714 220.695 185.843 220.676 185.97C220.657 186.097 220.613 186.219 220.546 186.329C220.48 186.439 220.392 186.534 220.288 186.61C220.121 186.735 219.917 186.803 219.708 186.803Z" fill="white"/>
<path d="M193.479 246.817V242.483H194.292V246.788C194.292 248.587 195.134 249.41 196.604 249.41C198.075 249.41 198.926 248.587 198.926 246.788V242.483H199.71V246.817C199.71 248.994 198.539 250.116 196.604 250.116C194.67 250.116 193.479 248.994 193.479 246.817Z" fill="#263238"/>
<path d="M207.712 247.214C207.734 247.595 207.676 247.976 207.542 248.334C207.408 248.691 207.201 249.017 206.935 249.29C206.668 249.563 206.347 249.777 205.993 249.92C205.639 250.062 205.259 250.129 204.877 250.116C204.45 250.13 204.027 250.034 203.647 249.838C203.268 249.641 202.945 249.351 202.71 248.994V252.167H201.946V244.427H202.681V245.482C202.912 245.111 203.237 244.807 203.622 244.602C204.008 244.396 204.441 244.296 204.877 244.311C205.258 244.3 205.638 244.368 205.991 244.511C206.345 244.653 206.665 244.868 206.931 245.141C207.198 245.413 207.405 245.738 207.539 246.095C207.673 246.452 207.732 246.833 207.712 247.214ZM206.948 247.214C206.931 246.797 206.791 246.394 206.547 246.056C206.303 245.717 205.965 245.458 205.575 245.31C205.185 245.162 204.76 245.133 204.353 245.224C203.946 245.316 203.575 245.525 203.286 245.826C202.997 246.127 202.803 246.506 202.728 246.916C202.652 247.327 202.699 247.75 202.862 248.134C203.026 248.518 203.298 248.845 203.646 249.076C203.994 249.306 204.402 249.429 204.819 249.429C205.107 249.434 205.393 249.379 205.659 249.268C205.925 249.157 206.166 248.992 206.365 248.784C206.565 248.577 206.72 248.33 206.82 248.06C206.92 247.789 206.964 247.501 206.948 247.214Z" fill="#263238"/>
<path d="M209.279 242.028H210.043V250.058H209.279V242.028Z" fill="#263238"/>
<path d="M211.611 247.214C211.611 246.64 211.781 246.078 212.1 245.601C212.419 245.124 212.872 244.752 213.402 244.532C213.933 244.312 214.516 244.255 215.079 244.367C215.642 244.479 216.16 244.755 216.565 245.161C216.971 245.567 217.248 246.084 217.36 246.647C217.472 247.21 217.414 247.794 217.195 248.324C216.975 248.855 216.603 249.308 216.126 249.627C215.648 249.946 215.087 250.116 214.513 250.116C214.128 250.13 213.745 250.064 213.387 249.923C213.028 249.782 212.703 249.568 212.431 249.296C212.158 249.024 211.945 248.698 211.804 248.34C211.663 247.982 211.597 247.598 211.611 247.214ZM216.622 247.214C216.603 246.799 216.463 246.399 216.218 246.063C215.974 245.727 215.636 245.471 215.247 245.326C214.858 245.18 214.435 245.153 214.03 245.246C213.626 245.339 213.257 245.549 212.971 245.85C212.685 246.15 212.493 246.529 212.42 246.937C212.347 247.346 212.395 247.767 212.56 248.149C212.724 248.53 212.997 248.855 213.344 249.082C213.691 249.31 214.098 249.431 214.513 249.429C214.8 249.434 215.086 249.379 215.351 249.268C215.616 249.157 215.855 248.992 216.053 248.784C216.251 248.575 216.404 248.328 216.502 248.058C216.6 247.788 216.641 247.5 216.622 247.214Z" fill="#263238"/>
<path d="M223.23 246.527V250.058H222.495V249.168C222.287 249.486 221.998 249.743 221.658 249.913C221.318 250.083 220.939 250.16 220.56 250.136C219.273 250.136 218.49 249.468 218.49 248.481C218.49 247.494 219.051 246.875 220.686 246.875H222.486V246.527C222.486 245.559 221.934 245.018 220.879 245.018C220.174 245 219.486 245.241 218.944 245.695L218.596 245.114C219.257 244.602 220.073 244.332 220.908 244.35C221.212 244.303 221.521 244.326 221.814 244.417C222.107 244.507 222.376 244.664 222.599 244.873C222.823 245.083 222.996 245.341 223.105 245.627C223.215 245.914 223.258 246.221 223.23 246.527ZM222.456 248.346V247.378H220.676C219.573 247.378 219.215 247.814 219.215 248.394C219.215 248.975 219.747 249.468 220.657 249.468C221.032 249.496 221.407 249.406 221.729 249.212C222.051 249.018 222.305 248.729 222.456 248.384V248.346Z" fill="#263238"/>
<path d="M230.525 242.028V250.058H229.79V248.926C229.562 249.301 229.238 249.608 228.852 249.816C228.466 250.023 228.031 250.123 227.593 250.106C226.824 250.106 226.085 249.801 225.541 249.256C224.997 248.712 224.691 247.974 224.691 247.204C224.691 246.434 224.997 245.696 225.541 245.152C226.085 244.607 226.824 244.301 227.593 244.301C228.021 244.286 228.445 244.382 228.824 244.578C229.204 244.775 229.526 245.066 229.761 245.424V242.009L230.525 242.028ZM229.77 247.214C229.751 246.799 229.611 246.399 229.366 246.063C229.122 245.727 228.784 245.471 228.395 245.326C228.006 245.18 227.583 245.152 227.178 245.246C226.774 245.339 226.405 245.549 226.119 245.849C225.833 246.15 225.641 246.529 225.568 246.937C225.495 247.346 225.543 247.767 225.708 248.149C225.872 248.53 226.145 248.855 226.492 249.082C226.839 249.31 227.246 249.431 227.661 249.429C227.948 249.432 228.233 249.376 228.497 249.265C228.761 249.153 229 248.988 229.198 248.78C229.396 248.573 229.549 248.326 229.647 248.057C229.746 247.787 229.788 247.5 229.77 247.214Z" fill="#263238"/>
<path d="M232.17 249.516C232.167 249.44 232.18 249.363 232.208 249.292C232.235 249.22 232.277 249.155 232.33 249.1C232.383 249.045 232.447 249.001 232.518 248.971C232.588 248.941 232.664 248.926 232.741 248.926C232.818 248.926 232.894 248.941 232.965 248.971C233.036 249.001 233.1 249.045 233.155 249.1C233.209 249.154 233.251 249.22 233.28 249.291C233.308 249.363 233.322 249.439 233.321 249.516C233.321 249.671 233.26 249.82 233.152 249.93C233.043 250.041 232.895 250.104 232.741 250.106C232.664 250.105 232.589 250.089 232.519 250.059C232.449 250.028 232.386 249.984 232.333 249.93C232.28 249.875 232.238 249.81 232.21 249.739C232.182 249.668 232.168 249.592 232.17 249.516Z" fill="#263238"/>
<path d="M234.462 249.516C234.461 249.44 234.475 249.364 234.503 249.293C234.531 249.222 234.573 249.158 234.626 249.103C234.679 249.048 234.742 249.004 234.812 248.974C234.882 248.944 234.957 248.927 235.033 248.926C235.11 248.926 235.187 248.941 235.258 248.971C235.329 249.001 235.393 249.045 235.447 249.1C235.501 249.154 235.544 249.22 235.572 249.291C235.601 249.363 235.615 249.439 235.614 249.516C235.614 249.671 235.553 249.82 235.444 249.93C235.336 250.041 235.188 250.104 235.033 250.106C234.957 250.105 234.882 250.089 234.812 250.059C234.742 250.028 234.679 249.984 234.626 249.93C234.573 249.875 234.531 249.81 234.503 249.739C234.475 249.668 234.461 249.592 234.462 249.516Z" fill="#263238"/>
<path d="M236.755 249.516C236.753 249.44 236.765 249.363 236.793 249.292C236.82 249.22 236.862 249.155 236.915 249.1C236.969 249.045 237.032 249.001 237.103 248.971C237.174 248.941 237.249 248.926 237.326 248.926C237.403 248.926 237.479 248.941 237.55 248.971C237.621 249.001 237.686 249.045 237.74 249.1C237.794 249.154 237.837 249.22 237.865 249.291C237.894 249.363 237.908 249.439 237.906 249.516C237.907 249.671 237.846 249.82 237.737 249.93C237.628 250.041 237.481 250.104 237.326 250.106C237.25 250.105 237.175 250.089 237.105 250.059C237.035 250.028 236.971 249.984 236.918 249.93C236.865 249.875 236.824 249.81 236.796 249.739C236.768 249.668 236.754 249.592 236.755 249.516Z" fill="#263238"/>
<path d="M286.021 263.003H135.131C131.588 263.003 128.716 265.875 128.716 269.418V271.285C128.716 274.828 131.588 277.699 135.131 277.699H286.021C289.564 277.699 292.435 274.828 292.435 271.285V269.418C292.435 265.875 289.564 263.003 286.021 263.003Z" fill="#E0E0E0"/>
<path d="M204.161 263.003H135.131C131.588 263.003 128.716 265.875 128.716 269.418V271.285C128.716 274.828 131.588 277.699 135.131 277.699H204.161C207.704 277.699 210.576 274.828 210.576 271.285V269.418C210.576 265.875 207.704 263.003 204.161 263.003Z" fill="#0086CF"/>
<g opacity="0.3">
<path opacity="0.3" d="M141.08 263.003L132.373 276.829L133.737 277.438C134.124 277.612 134.542 277.701 134.966 277.699H137.733L147.195 263.003H141.08Z" fill="white"/>
</g>
<g opacity="0.3">
<path opacity="0.3" d="M156.657 263.003L147.398 277.699H153.309L162.762 263.003H156.657Z" fill="white"/>
</g>
<g opacity="0.3">
<path opacity="0.3" d="M172.224 263.003L162.965 277.699H168.876L178.338 263.003H172.224Z" fill="white"/>
</g>
<g opacity="0.3">
<path opacity="0.3" d="M187.801 263.003L178.532 277.699H184.444L193.906 263.003H187.801Z" fill="white"/>
</g>
<g opacity="0.3">
<path opacity="0.3" d="M203.367 263.003L194.108 277.699H200.02L207.469 266.09L208.36 264.832C207.218 263.603 205.467 263.09 203.367 263.003Z" fill="white"/>
</g>
<path d="M286.204 277.699C286.204 277.699 286.504 277.699 287.085 277.603C287.947 277.484 288.775 277.184 289.513 276.722C290.724 275.981 291.653 274.858 292.154 273.53C292.471 272.69 292.615 271.795 292.58 270.898C292.64 269.876 292.562 268.851 292.348 267.85C292.04 266.689 291.41 265.64 290.53 264.823C289.65 264.006 288.556 263.455 287.375 263.235C286.709 263.141 286.035 263.105 285.363 263.129H278.745H257.634L135.421 263.197C133.981 263.198 132.586 263.698 131.473 264.612C130.36 265.525 129.597 266.796 129.316 268.208C129.208 268.919 129.169 269.638 129.2 270.356C129.169 271.072 129.217 271.789 129.345 272.494C129.635 273.862 130.378 275.092 131.455 275.984C132.531 276.876 133.878 277.378 135.275 277.409H148.143H180.593L235.537 277.467L272.582 277.545L282.654 277.593H285.276H286.166H285.276H282.654H272.582L235.537 277.68L180.593 277.728H148.143H135.275C133.752 277.715 132.279 277.183 131.097 276.222C129.916 275.26 129.097 273.925 128.774 272.436C128.636 271.696 128.585 270.943 128.619 270.192C128.585 269.441 128.627 268.689 128.745 267.947C129.046 266.419 129.868 265.043 131.072 264.054C132.276 263.066 133.786 262.527 135.343 262.529L257.557 262.607H278.668H285.285C285.975 262.58 286.665 262.622 287.346 262.732C288.565 262.965 289.692 263.538 290.598 264.386C291.504 265.234 292.151 266.321 292.464 267.521C292.67 268.543 292.742 269.587 292.677 270.627C292.701 271.545 292.547 272.458 292.222 273.317C291.693 274.662 290.734 275.795 289.494 276.538C288.737 276.992 287.893 277.282 287.017 277.39C286.756 277.518 286.484 277.621 286.204 277.699Z" fill="#263238"/>
</svg>
