<svg width="20" height="17" viewBox="0 0 20 17" fill="none" xmlns="http://www.w3.org/2000/svg">
<path d="M17.572 2.32294C17.1209 1.90361 16.5848 1.5709 15.9945 1.34388C15.4042 1.11686 14.7714 1 14.1322 1C13.4931 1 12.8602 1.11686 12.27 1.34388C11.6797 1.5709 11.1436 1.90361 10.6925 2.32294L10 2.97264L9.30755 2.32294C8.85639 1.90361 8.32031 1.5709 7.73003 1.34388C7.13976 1.11686 6.5069 1 5.86776 1C5.22862 1 4.59577 1.11686 4.0055 1.34388C3.41522 1.5709 2.87914 1.90361 2.42798 2.32294C0.521487 4.0888 0.404579 7.07076 2.80568 9.33639L10 16L17.1943 9.33639C19.5954 7.07076 19.4785 4.0888 17.572 2.32294Z" fill="#FF0000" stroke="#FF0000" stroke-width="2" stroke-linecap="round" stroke-linejoin="round"/>
<path d="M17.572 2.32294C17.1209 1.90361 16.5848 1.5709 15.9945 1.34388C15.4042 1.11686 14.7714 1 14.1322 1C13.4931 1 12.8602 1.11686 12.27 1.34388C11.6797 1.5709 11.1436 1.90361 10.6925 2.32294L10 2.97264L9.30755 2.32294C8.85639 1.90361 8.32031 1.5709 7.73003 1.34388C7.13976 1.11686 6.5069 1 5.86776 1C5.22862 1 4.59577 1.11686 4.0055 1.34388C3.41522 1.5709 2.87914 1.90361 2.42798 2.32294C0.521487 4.0888 0.404579 7.07076 2.80568 9.33639L10 16L17.1943 9.33639C19.5954 7.07076 19.4785 4.0888 17.572 2.32294Z" fill="#0086CF" stroke="#0086CF" stroke-width="2" stroke-linecap="round" stroke-linejoin="round"/>
</svg>
